<?xml version="1.0" encoding="UTF-8" standalone="no"?>
<!-- Created with Inkscape (http://www.inkscape.org/) -->

<svg
   xmlns:svg="http://www.w3.org/2000/svg"
   xmlns="http://www.w3.org/2000/svg"
   version="1.1"
   width="429"
   height="401"
   id="svg2">
  <defs
     id="defs4" />
  <g
     transform="translate(-125.5,-151.86218)"
     id="layer1">
    <path
       d="m 480,292.36218 c 0,77.31987 -62.68014,140 -140,140 -77.31986,0 -140,-62.68013 -140,-140 0,-77.31986 62.68014,-140 140,-140 77.31986,0 140,62.68014 140,140 z"
       id="path2818"
       style="fill:#ffb3da;fill-opacity:1;stroke:#000000;stroke-width:1;stroke-linecap:round;stroke-miterlimit:4;stroke-opacity:1;stroke-dashoffset:0" />
    <path
       d="m 406,412.36218 c 0,77.31987 -62.68014,140 -140,140 -77.31986,0 -140,-62.68013 -140,-140 0,-77.31986 62.68014,-140 140,-140 77.31986,0 140,62.68014 140,140 z"
       id="path2818-1"
       style="fill:#ffff80;fill-opacity:1;stroke:#000000;stroke-width:1;stroke-linecap:round;stroke-miterlimit:4;stroke-opacity:1;stroke-dashoffset:0" />
    <path
       d="m 554,412.36218 c 0,77.31987 -62.68014,140 -140,140 -77.31986,0 -140,-62.68013 -140,-140 0,-77.31986 62.68014,-140 140,-140 77.31986,0 140,62.68014 140,140 z"
       id="path2818-1-0"
       style="fill:#99ccff;fill-opacity:1;stroke:#000000;stroke-width:1;stroke-linecap:round;stroke-miterlimit:4;stroke-opacity:1;stroke-dashoffset:0" />
    <path
       d="m 340,292.36218 c -39.62859,24.72433 -66,68.7254 -66,118.875 0,1.1766 0.002,2.3303 0.0312,3.5 19.65735,10.5221 42.11343,16.5 65.96875,16.5 23.85532,0 46.3114,-5.9779 65.96875,-16.5 0.0289,-1.1697 0.0312,-2.3234 0.0312,-3.5 0,-50.1496 -26.37141,-94.15067 -66,-118.875 z"
       id="path2818-9"
       style="fill:#ddd4c8;fill-opacity:1;stroke:#000000;stroke-width:1;stroke-linecap:round;stroke-miterlimit:4;stroke-opacity:1;stroke-dashoffset:0" />
    <path
       d="m 266.25003,271.46933 c -23.85532,0 -46.3114,5.94667 -65.96875,16.46875 -0.0289,1.16993 -0.0312,2.35437 -0.0312,3.53125 0,53.46323 29.97697,99.91736 74.03125,123.5 -0.0289,-1.16966 -0.0312,-2.32339 -0.0312,-3.5 0,-50.14004 26.35267,-94.14806 65.96875,-118.875 -21.46249,-13.38134 -46.81378,-21.125 -73.96875,-21.125 z"
       id="path2818-8"
       style="fill:#ffccbc;fill-opacity:1;stroke:#000000;stroke-width:1;stroke-linecap:round;stroke-miterlimit:4;stroke-opacity:1;stroke-dashoffset:0" />
    <path
       d="m 413.7005,271.90228 c 23.85532,0 46.3114,5.94667 65.96875,16.46875 0.0289,1.16993 0.0312,2.35437 0.0312,3.53125 0,53.46323 -29.97697,99.91736 -74.03125,123.5 0.0289,-1.16966 0.0312,-2.32339 0.0312,-3.5 0,-50.14004 -26.35267,-94.14806 -65.96875,-118.875 21.46249,-13.38134 46.81378,-21.125 73.96875,-21.125 z"
       id="path2818-8-5"
       style="fill:#CCC0ED;fill-opacity:1;stroke:#000000;stroke-width:1;stroke-linecap:round;stroke-miterlimit:4;stroke-opacity:1;stroke-dashoffset:0" />
    <path
       d="m 274,415.28198 c 1.19491,48.69086 27.26477,91.19629 65.96875,115.34375 38.70398,-24.14746 64.77384,-66.65289 65.96875,-115.34375 -19.65735,10.52208 -42.11343,16.5 -65.96875,16.5 -23.85532,0 -46.3114,-5.97792 -65.96875,-16.5 z"
       id="path2818-1-1"
       style="fill:#cce6c0;fill-opacity:1;stroke:#000000;stroke-width:1;stroke-linecap:round;stroke-miterlimit:4;stroke-opacity:1;stroke-dashoffset:0" />
  </g>
</svg>
